<svg width="30" height="32" viewBox="0 0 30 32" fill="none" xmlns="http://www.w3.org/2000/svg">
<path id="Combined Shape" fill-rule="evenodd" clip-rule="evenodd" d="M15 0C15.288 0 15.562 0.126 15.752 0.342C15.752 0.342 23.072 9.056 22.91 9.414C22.748 9.772 22.392 10 22 10H18V21C18 22.6569 16.6569 24 15 24C13.3431 24 12 22.6569 12 21V10H8C7.608 10 7.252 9.77 7.09 9.414C6.926 9.056 6.99 8.638 7.248 8.342L14.248 0.342C14.438 0.126 14.712 0 15 0ZM26 24C26 22.8954 26.8954 22 28 22C29.1046 22 30 22.8954 30 24V30C30 31.106 29.106 32 28 32H2C0.896 32 0 31.106 0 30V24C0 22.8954 0.895431 22 2 22C3.10457 22 4 22.8954 4 24V28H26V24Z" fill="white"/>
</svg>
